<?xml version="1.0" encoding="iso-8859-1"?>
<!-- Uploaded to: SVG Repo, www.svgrepo.com, Generator: SVG Repo Mixer Tools -->
<svg version="1.1" id="Layer_1" xmlns="http://www.w3.org/2000/svg" xmlns:xlink="http://www.w3.org/1999/xlink" 
	 viewBox="0 0 512.001 512.001" xml:space="preserve">
<rect x="118.325" y="331.079" transform="matrix(0.7071 -0.7071 0.7071 0.7071 -197.4424 218.1694)" style="fill:#DCDCDC;" width="92.616" height="32.68"/>
<path style="fill:#42C8C6;" d="M449.641,324.322c-72.323,72.323-189.584,72.323-261.908,0l112.574-149.333L449.64,62.415
	C521.964,134.737,521.964,251.997,449.641,324.322z"/>
<path style="fill:#81E3E2;" d="M449.641,62.413L187.733,324.322c-72.323-72.323-72.323-189.584,0-261.908
	S377.316-9.91,449.641,62.413z"/>
<path style="fill:#D5F6F5;" d="M320.172,46.312v294.104c40.012-0.392,76.222-16.776,102.508-43.062
	c26.613-26.613,43.073-63.379,43.073-103.99C465.754,112.643,400.708,47.107,320.172,46.312z"/>
<path style="fill:#FFFFFF;" d="M320.172,46.312c62.485,1.024,112.901,66.462,112.901,147.052s-50.415,146.028-112.901,147.052
	c-0.49,0.011-0.991,0.011-1.482,0.011c-81.222,0-147.063-65.841-147.063-147.063c0-40.611,16.46-77.377,43.073-103.99
	s63.379-43.073,103.99-43.073C319.181,46.301,319.682,46.301,320.172,46.312z"/>
<polygon style="fill:#969696;" points="169.399,388.867 146.29,411.975 100.073,396.57 153.993,373.461 "/>
<path style="fill:#FE834D;" d="M130.885,396.57L14.571,482.072l15.406,15.406c8.473,8.473,22.338,8.473,30.811,0l85.502-85.502
	L130.885,396.57z"/>
<polygon style="fill:#B9B9B9;" points="153.993,373.461 130.885,396.57 100.073,396.57 100.073,365.758 123.182,342.649 "/>
<path style="fill:#FEA680;" d="M130.885,396.57l-85.502,85.502c-8.473,8.473-22.338,8.473-30.811,0
	c-8.473-8.473-8.473-22.338,0-30.811l85.502-85.502L130.885,396.57z"/>
<path d="M455.419,56.636C418.896,20.114,370.337,0,318.686,0s-100.209,20.114-136.73,56.636
	c-36.522,36.523-56.636,85.082-56.636,136.733c0,43.387,14.199,84.589,40.388,118.312l-30.966,30.966l-5.777-5.777
	c-1.532-1.532-3.61-2.392-5.777-2.392s-4.245,0.861-5.777,2.392l-23.105,23.104c-0.011,0.011-85.508,85.508-85.508,85.508
	c-11.68,11.681-11.68,30.686,0,42.366l15.407,15.408c5.641,5.641,13.164,8.746,21.183,8.746s15.542-3.107,21.182-8.746
	l108.611-108.611c3.191-3.192,3.191-8.364,0-11.555l-5.776-5.776l30.966-30.966c33.722,26.19,74.926,40.39,118.314,40.39
	c51.651,0,100.209-20.114,136.731-56.636C530.811,254.705,530.811,132.03,455.419,56.636z M55.017,491.698
	c-2.556,2.555-5.975,3.962-9.629,3.962c-3.654,0-7.074-1.407-9.629-3.962l-15.406-15.407c-2.555-2.555-3.962-5.974-3.962-9.628
	c0-3.654,1.407-7.074,3.962-9.629l79.726-79.726l34.663,34.663L55.017,491.698z M146.296,400.418l-34.663-34.663l11.554-11.554
	l5.772,5.774c0.009,0.009,23.108,23.108,23.108,23.108c0.012,0.012,5.782,5.782,5.782,5.782L146.296,400.418z M157.852,365.756
	L146.296,354.2l30.008-30.008c1.841,1.999,3.718,3.973,5.65,5.906c1.933,1.933,3.906,3.808,5.904,5.649L157.852,365.756z
	 M443.863,318.544c-33.434,33.437-77.89,51.851-125.176,51.851c-42.034,0-81.823-14.563-113.632-41.281
	c-0.051-0.044-0.102-0.088-0.155-0.131c-3.92-3.3-7.725-6.774-11.39-10.439c-69.023-69.022-69.023-181.331,0-250.352
	c33.436-33.437,77.89-51.851,125.176-51.851s91.741,18.414,125.177,51.851C512.885,137.214,512.885,249.522,443.863,318.544z"/>
<path d="M171.636,184.511c0.307,0.034,0.611,0.051,0.913,0.051c4.108,0,7.646-3.09,8.11-7.268
	c2.906-26.147,13.107-50.786,29.499-71.254c2.82-3.522,2.252-8.664-1.27-11.485c-3.522-2.819-8.664-2.252-11.484,1.27
	c-18.329,22.888-29.735,50.435-32.985,79.662C163.921,179.972,167.152,184.012,171.636,184.511z"/>
<path d="M428.453,82.963c-56.041-56.039-144.886-60.988-206.666-11.511c-3.522,2.821-4.091,7.963-1.27,11.485
	c2.82,3.521,7.962,4.092,11.484,1.269c55.266-44.263,134.758-39.83,184.896,10.313c26.234,26.233,40.682,61.112,40.682,98.211
	s-14.448,71.979-40.682,98.212c-54.153,54.156-142.269,54.155-196.424,0c-22.533-22.533-36.301-51.155-39.816-82.774
	c-0.499-4.484-4.538-7.718-9.023-7.217c-4.485,0.499-7.716,4.538-7.217,9.023c3.929,35.344,19.318,67.337,44.502,92.523
	c30.262,30.262,70.014,45.393,109.767,45.393s79.503-15.131,109.767-45.393c29.319-29.32,45.466-68.303,45.466-109.767
	C473.919,151.266,457.773,112.283,428.453,82.963z"/>
</svg>